<svg xmlns:xlink="http://www.w3.org/1999/xlink" xmlns="http://www.w3.org/2000/svg" width="50" height="16" viewBox="0 -22 400 120"><style>.st0{fill:#D50032;}</style><path class="st0" d="M368.8,28.4l6.4-24.8h-32.9L336,28.4h29.8l-5.6,21.1c-0.5,1.8,0.9,3.6,2.8,3.6h29.2l6.5-24.8H368.8z" fill="#D50032"></path><polygon points="107.3,53.1 120.4,3.6 104.1,3.6 91.1,53.1"></polygon><path d="M258.5,49c0.8,1.3,1.9,2.3,3.3,3c1.4,0.7,3,1.1,4.9,1.1h38.9c1.8,0,3.7-0.4,5.5-1.1c1.9-0.8,3.6-1.8,5.2-3.2c1.6-1.4,3-3,4.2-4.8c1.2-1.8,2.1-3.8,2.6-5.8l5.3-20.1c0.5-2,0.7-3.9,0.5-5.7c-0.2-1.7-0.8-3.3-1.6-4.6c-0.8-1.3-2-2.3-3.4-3c-1.4-0.7-3-1.1-4.8-1.1h-38.9c-1.8,0-3.7,0.4-5.5,1.2c-1.9,0.8-3.7,1.9-5.3,3.2c-1.6,1.4-3.1,3-4.3,4.8c-1.2,1.8-2.1,3.8-2.6,5.8l-5.3,20.1c-0.5,2-0.7,4-0.4,5.7C257.1,46.2,257.7,47.7,258.5,49z M275,33.2l2.8-10.5c0.4-1.5,1.2-2.8,2.5-3.8c1.3-1.1,2.6-1.7,4.1-1.7h22.2c1.6,0,2.8,0.7,3.7,1.9c0.8,1.2,1,2.7,0.6,4.3l-2.8,10.5c-0.4,1.5-1.3,2.8-2.5,3.8c-1.3,1.1-2.6,1.7-4.1,1.7l-22.3,0c-1.6-0.1-2.8-0.7-3.6-2C274.8,36.2,274.6,34.8,275,33.2z"></path><path d="M20.1,100.8c-0.8-1.2-1-2.6-0.5-4.2l2.8-10.5c0.4-1.5,1.2-2.8,2.5-3.8c1.3-1.1,2.6-1.7,4.1-1.7h39.9l-6-13.7H24.9c-1.8,0-3.7,0.4-5.5,1.2c-1.9,0.8-3.7,1.9-5.3,3.2c-1.6,1.4-3.1,3-4.3,4.8c-1.2,1.8-2.1,3.8-2.6,5.8l-5.3,20.2c-0.5,2-0.7,4-0.4,5.7c0.3,1.7,0.8,3.2,1.7,4.5c0.9,1.3,2,2.3,3.4,3c1.4,0.7,2.9,1.1,4.7,1.1H59l3.6-13.7l-38.9,0C22.1,102.7,20.9,102,20.1,100.8z"></path><path d="M214.5,75.6c-0.2-1.7-0.8-3.3-1.6-4.6c-0.8-1.3-2-2.3-3.4-3c-1.4-0.7-3-1.1-4.8-1.1h-38.9c-1.8,0-3.7,0.4-5.5,1.2c-1.9,0.8-3.7,1.9-5.3,3.2c-1.6,1.4-3.1,3-4.3,4.8c-1.2,1.8-2.1,3.8-2.6,5.8l-5.3,20.1c-0.5,2-0.7,4-0.4,5.7c0.2,1.7,0.8,3.3,1.6,4.5c0.8,1.3,1.9,2.3,3.3,3c1.4,0.7,3,1.1,4.9,1.1h38.9c1.8,0,3.7-0.4,5.5-1.1c1.9-0.8,3.6-1.8,5.2-3.2c1.6-1.4,3-3,4.2-4.8c1.2-1.8,2.1-3.8,2.6-5.8l5.3-20.1C214.5,79.3,214.7,77.4,214.5,75.6z M196.4,86.7l-2.8,10.5c-0.4,1.5-1.3,2.8-2.5,3.8c-1.3,1.1-2.6,1.7-4.1,1.7l-22.3,0c-1.6-0.1-2.8-0.7-3.6-2c-0.8-1.2-1-2.6-0.5-4.2l2.8-10.5c0.4-1.5,1.2-2.8,2.5-3.8c1.3-1.1,2.6-1.7,4.1-1.7h22.2c1.6,0,2.8,0.7,3.7,1.9C196.6,83.7,196.8,85.1,196.4,86.7z"></path><path d="M278.4,87.1c-1.2-0.6-2.8-0.9-4.8-0.9h-34.4c-0.7,0-2.7,0-3.3-1.5c-0.3-0.8-0.4-1.6-0.2-2.4c0.2-0.9,0.7-1.6,1.3-2.2c0.7-0.7,1.8-1,3.4-1h43.4l3.2-12.2h-51.5c-1.5,0-3.1,0.3-4.6,0.9c-1.5,0.6-3,1.4-4.3,2.5c-1.3,1.1-2.5,2.3-3.5,3.8c-1,1.4-1.7,3-2.1,4.7l-2.2,8.4c-0.4,1.5-0.5,2.9-0.3,4.2c0.2,1.2,0.7,2.2,1.4,3c0.7,0.9,1.7,1.5,2.9,2c1.2,0.5,2.6,0.7,4.1,0.7h34.4c1.1,0,2.7,0.1,3.3,1.4c0.3,0.7,0.4,1.5,0.2,2.4c-0.2,0.8-0.6,1.6-1.3,2.3c-0.7,0.7-1.9,1.1-3.5,1.1h-44.7l-3.2,12.2H265c2,0,3.8-0.4,5.4-1.1c1.6-0.7,3-1.7,4.3-2.8c1.2-1.2,2.3-2.5,3.1-4c0.8-1.5,1.5-3,1.9-4.5l1.6-6c0.5-1.9,0.7-3.6,0.7-5.1c0-1.4-0.3-2.6-0.9-3.6C280.5,88.4,279.6,87.6,278.4,87.1z"></path><path d="M307.2,80.1c0.7-0.7,1.8-1,3.4-1H354l3.2-12.2h-51.5c-1.5,0-3.1,0.3-4.6,0.9c-1.5,0.6-3,1.4-4.3,2.5c-1.3,1-2.5,2.3-3.5,3.8c-1,1.4-1.7,3-2.1,4.7l-2.2,8.4c-0.4,1.5-0.5,2.9-0.3,4.2c0.2,1.2,0.7,2.2,1.4,3c0.7,0.9,1.7,1.5,2.9,2c1.2,0.5,2.6,0.7,4.1,0.7h34.4c1.1,0,2.7,0.1,3.3,1.4c0.3,0.7,0.4,1.5,0.2,2.4c-0.2,0.8-0.6,1.6-1.3,2.3c-0.7,0.7-1.9,1.1-3.5,1.1h-44.7l-3.2,12.2h52.7c2,0,3.8-0.4,5.4-1.1c1.6-0.7,3-1.7,4.3-2.8c1.2-1.2,2.3-2.5,3.1-4c0.8-1.5,1.5-3,1.9-4.5l1.6-6c0.5-1.9,0.7-3.6,0.7-5.1c0-1.4-0.3-2.6-0.9-3.6c-0.6-1-1.4-1.7-2.6-2.2c-1.2-0.6-2.8-0.9-4.8-0.9h-34.4c-0.7,0-2.7,0-3.3-1.5c-0.3-0.8-0.4-1.6-0.2-2.4C306.1,81.5,306.5,80.7,307.2,80.1z"></path><polygon points="30.8,53.1 40.1,17.6 58.9,53.1 81.5,53.1 94.5,3.6 78.3,3.6 68.9,39.1 50.1,3.6 19.3,3.6 24.9,13.4 14.5,53.1"></polygon><path d="M132.8,66.9H70.1l6.2,13.3l-9.5,36.2H83l9.4-35.8H120c1.5,0,2.4,0.5,3.1,1.3c0.6,0.7,1,1.7,0.6,3.6c0,0-0.3,3-1.3,4.4c-0.6,0.9-2.3,1.1-3.5,1.1H95.4l7.2,11h12.9c1.7,0,2.7,0.9,3.1,1.6c0.7,1,1,2.2,0.6,3.7l-2.8,9.1h16.9c0,0,2.6-9.9,2.6-9.9c1.6-6.5-0.5-9.4-5-9.9c-0.1,0-0.1-0.2,0-0.2c7.8,0,9.1-9,10.9-18.6C143.1,71.5,139.1,66.9,132.8,66.9z"></path><polygon points="136.1,53.1 152.4,53.1 161.8,17.3 183.3,17.3 177.1,3.6 127.3,3.6 123.7,17.3 145.6,17.3"></polygon><path d="M181.2,53.1h16.3l9.4-35.8h27.5c1.5,0,2.4,0.5,3.1,1.3c0.6,0.7,1,1.7,0.6,3.6c0,0-0.3,3-1.3,4.4c-0.6,0.9-2.3,1.1-3.5,1.1h-23.6l7.2,11h12.9c1.7,0,2.7,0.9,3.1,1.6c0.7,1,1,2.2,0.6,3.7l-2.8,9.1h16.9c0,0,2.6-9.9,2.6-9.9c1.6-6.5-0.5-9.4-5-9.9c-0.1,0-0.1-0.2,0-0.2c7.8,0,9.1-9,10.9-18.6c1.2-6.3-2.8-10.9-9.1-10.9h-62.7l6.2,13.3L181.2,53.1z"></path></svg>