<svg xmlns:xlink="http://www.w3.org/1999/xlink" xmlns="http://www.w3.org/2000/svg" width="43" height="14" viewBox="0 0 43 14"><path d="M12.33.08c0-.02.02-.04.04-.05h1.95c.24 0 .36.12.36.35v1.15c0 .23-.12.35-.36.35h-1.38v.53c0 .02-.02.04-.04.05h-.52l-.03-.01-.02-.03V.08Zm.6 1.28h1.03a.1.1 0 0 0 .08-.02.1.1 0 0 0 .03-.09V.66a.1.1 0 0 0-.04-.1.1.1 0 0 0-.07 0h-1.02v.8Zm3.7 1.14c-.24 0-.36-.12-.36-.36V.34c0-.23.12-.34.36-.34h1.63c.24 0 .36.11.36.35v1.8c0 .23-.12.34-.36.34h-1.63Zm.24-.64c0 .06.04.1.09.11h.94a.1.1 0 0 0 .07-.01.1.1 0 0 0 .04-.07V.63a.1.1 0 0 0-.04-.1.1.1 0 0 0-.07-.01H17a.1.1 0 0 0-.08.02.1.1 0 0 0-.04.06v1.26Zm4.63-.41-.76.97a.08.08 0 0 1-.05.04h-.5l-.03-.01-.02-.03V.08c0-.02.02-.04.04-.05h.52c.02 0 .04.02.05.04V1.5l.75-.9.75.91V.08c0-.02.02-.04.04-.05h.52c.02 0 .05.02.05.04v2.34c0 .02-.01.04-.04.05h-.5a.08.08 0 0 1-.07-.04l-.75-.97Zm3 1.01-.04-.01-.02-.03V.08c0-.02.02-.04.04-.05h2.02c.03 0 .05.02.05.05v.43c0 .03-.02.04-.05.04h-1.45V1h1.15c.02 0 .04.01.05.04v.43c0 .02-.02.05-.04.05h-1.16v.43h1.45c.03 0 .05.01.05.05v.42c0 .03-.02.05-.05.05h-2.01Zm3.87 0-.03-.01-.02-.03V.08c0-.02.02-.04.04-.05h1.95c.24 0 .36.12.36.35V1c0 .24-.12.35-.35.35v.02c.23 0 .35.12.35.35v.7c0 .02-.02.04-.04.05h-.52a.05.05 0 0 1-.04-.03v-.71a.11.11 0 0 0-.1-.12h-1.04v.8c0 .03-.02.05-.05.06h-.51Zm.56-1.38h1c.07 0 .12-.03.13-.1V.67a.1.1 0 0 0-.04-.1.1.1 0 0 0-.07 0h-1.02v.52ZM33.3 14V3.7h8.5c.66 0 1.2.53 1.2 1.17v5.2c0 .64-.54 1.16-1.2 1.16h-3.95l2.3-1.87V6.45h-4V14H33.3ZM27.13 3.7l-7.75 6.32h4.43l5.39-4.38v5.6h-4.08L21.72 14h10.33V3.7h-4.92Z" fill="#FFFFFF"></path><path d="M22.82 11.23 19.42 14H13.7V4.3l-2.66 2.17H4.85V7.7h6.19c.76 0 1.37.6 1.37 1.33v3.62c0 .74-.61 1.33-1.37 1.33H0l3.39-2.76h6.18v-1.3H3.4c-.76 0-1.37-.6-1.37-1.33V5.03c0-.73.61-1.33 1.37-1.33h13.16v7.53h6.27Z" fill="#FFFFFF"></path></svg>