<svg xmlns:xlink="http://www.w3.org/1999/xlink" xmlns="http://www.w3.org/2000/svg" width="43" height="17" viewBox="0 -32 360 186"><path d="M99,87.3c-8.3-0.1-16.5,0.1-24.8,0.5c-8.1,0.2-10.7-1.2-10.7-10.3V61.2c0-10.7,5.3-16.7,18.6-19.6	c15.3-3.2,18.9,1.2,18.9,11.6v16.6c6.3-1.1,12.7-2,19-2.8V51.6c0-22.2-12.2-29.1-37.7-23.8c-27.8,6.1-37.1,19.2-37.2,39v20.4	c0,16.2,6.7,20.2,21.4,18.6c7.3-0.6,14.7-0.9,22.2-1.1c11,0,13.1,2.4,13.1,10.5v19.4c0,12.2-5.2,16.2-19.5,19.2	c-14.5,3.2-19.3,0.8-19.3-10.9v-18.1c-6.2,1.6-12.3,3.3-18.4,5.1v18.1c0,23,12.7,25.3,37.7,19.9c26.6-5.5,38.3-14.4,38.2-35.9v-24.5	C120.7,91.7,112.9,87.1,99,87.3L99,87.3z M204.6,143.6c-12-0.6-24.1-0.8-36.1-0.5V29.7c4.6-0.1,9.2-0.2,13.8-0.1V15.8	c-15.3-0.1-30.7,0.6-46,2v13.8c4.4-0.4,8.8-0.8,13.2-1V144c-4.4,0.3-8.8,0.6-13.2,1v13.8c29-2.7,58.2-2.7,87.2-0.1v-45.4	c-6.3-0.6-12.6-1-18.9-1.3L204.6,143.6L204.6,143.6z M294.1,94.4c-8.2-3.6-16.4-6.9-24.7-10c-8.2-3.2-10.8-5.7-10.8-14.8V53.2	c0-10.7,5.4-14.4,18.7-11.7c15.3,3.3,18.8,9.2,18.8,19.6v16.6c6.2,1.6,12.4,3.3,18.6,5.1V67.5c0-22.2-11.7-34.2-37.2-39.7	c-27.8-5.7-37.8,3.3-37.7,23.1v20.4c0,16.2,7,23.1,21.9,27.8c7.5,2.6,14.9,5.3,22.2,8.3c10.9,4.7,12.9,7.9,12.9,16v19.4	c0,12.2-5,14-19.3,10.9c-14.5-3-19.5-7.4-19.5-19.2v-18.1c-6.2-1-12.5-2-18.8-2.8v18.1c0,22.9,13.2,30.8,38.2,35.9	c26.5,5.8,37.6,1.7,37.7-19.9v-24.4C315.2,107.8,307.8,99.9,294.1,94.4L294.1,94.4z"></path><path d="M99,87.3c-8.3-0.1-16.5,0.1-24.8,0.5c-8.1,0.2-10.7-1.2-10.7-10.3V61.2c0-10.7,5.3-16.7,18.6-19.6	c15.3-3.2,18.9,1.2,18.9,11.6v16.6c6.3-1.1,12.7-2,19-2.8V51.6c0-22.2-12.2-29.1-37.7-23.8c-27.8,6.1-37.1,19.2-37.2,39v20.4	c0,16.2,6.7,20.2,21.4,18.6c7.3-0.6,14.7-0.9,22.2-1.1c11,0,13.1,2.4,13.1,10.5v19.4c0,12.2-5.2,16.2-19.5,19.2	c-14.5,3.2-19.3,0.8-19.3-10.9v-18.1c-6.2,1.6-12.3,3.3-18.4,5.1v18.1c0,23,12.7,25.3,37.7,19.9c26.6-5.5,38.3-14.4,38.2-35.9v-24.5	C120.7,91.7,112.9,87.1,99,87.3L99,87.3z M204.6,143.6c-12-0.6-24.1-0.8-36.1-0.5V29.7c4.6-0.1,9.2-0.2,13.8-0.1V15.8	c-15.3-0.1-30.7,0.6-46,2v13.8c4.4-0.4,8.8-0.8,13.2-1V144c-4.4,0.3-8.8,0.6-13.2,1v13.8c29-2.7,58.2-2.7,87.2-0.1v-45.4	c-6.3-0.6-12.6-1-18.9-1.3L204.6,143.6L204.6,143.6z M294.1,94.4c-8.2-3.6-16.4-6.9-24.7-10c-8.2-3.2-10.8-5.7-10.8-14.8V53.2	c0-10.7,5.4-14.4,18.7-11.7c15.3,3.3,18.8,9.2,18.8,19.6v16.6c6.2,1.6,12.4,3.3,18.6,5.1V67.5c0-22.2-11.7-34.2-37.2-39.7	c-27.8-5.7-37.8,3.3-37.7,23.1v20.4c0,16.2,7,23.1,21.9,27.8c7.5,2.6,14.9,5.3,22.2,8.3c10.9,4.7,12.9,7.9,12.9,16v19.4	c0,12.2-5,14-19.3,10.9c-14.5-3-19.5-7.4-19.5-19.2v-18.1c-6.2-1-12.5-2-18.8-2.8v18.1c0,22.9,13.2,30.8,38.2,35.9	c26.5,5.8,37.6,1.7,37.7-19.9v-24.4C315.2,107.8,307.8,99.9,294.1,94.4L294.1,94.4z"></path></svg>