<svg xmlns:xlink="http://www.w3.org/1999/xlink" xmlns="http://www.w3.org/2000/svg" class="main-menu-icon" width="20" height="20" viewBox="0 0 20 20" fill="currentColor"><path fill-rule="evenodd" d="M10.077 1.6a2.23 2.23 0 0 1 2.668 2.188v12.425a2.23 2.23 0 0 1-2.668 2.187l-6.52-1.304a2.23 2.23 0 0 1-1.792-2.187V5.09a2.23 2.23 0 0 1 1.793-2.187l6.52-1.304Zm1.001 2.188a.564.564 0 0 0-.674-.553l-6.52 1.304a.564.564 0 0 0-.453.552v9.818c0 .268.19.5.453.552l6.52 1.304a.564.564 0 0 0 .674-.552V3.788Z" clip-rule="evenodd" fill="#061726"></path>
<path d="M13.824 2.549h.27c.77 0 1.396.626 1.396 1.397v12.108c0 .772-.625 1.397-1.397 1.397h-.27V2.549ZM16.838 3.48h-.27v13.04h.27c.772 0 1.397-.626 1.397-1.397V4.877c0-.771-.625-1.397-1.397-1.397Z" fill="#061726"></path></svg>