<svg xmlns:xlink="http://www.w3.org/1999/xlink" xmlns="http://www.w3.org/2000/svg" class="main-menu-icon" width="20" height="20" viewBox="0 0 20 20" fill="none"><path fill-rule="evenodd" clip-rule="evenodd" fill="#061726" d="M10.512 1.009a.833.833 0 0 0-1.024 0l-7.5 5.833a.833.833 0 0 0-.321.658v9.167a2.5 2.5 0 0 0 2.5 2.5H15.833a2.5 2.5 0 0 0 2.5-2.5V7.5c0-.257-.118-.5-.321-.658l-7.5-5.833Zm2.821 16.49h2.5a.833.833 0 0 0 .834-.832v-8.76L10 2.723 3.333 7.908v8.759a.833.833 0 0 0 .834.833h2.5V10c0-.46.373-.833.833-.833h5c.46 0 .833.373.833.833v7.5Zm-5 0h3.334v-6.666H8.333V17.5Z"></path></svg>