<svg xmlns:xlink="http://www.w3.org/1999/xlink" xmlns="http://www.w3.org/2000/svg" class="main-menu-icon" width="20" height="20" viewBox="0 0 20 20" fill="currentColor"><path fill-rule="evenodd" d="M7.288 3.908a6.668 6.668 0 1 0 8.804 8.804 6.25 6.25 0 0 1-8.804-8.804ZM1.667 10A8.333 8.333 0 0 1 10 1.667c.282 0 .544.114.732.315.175.187.252.412.27.607.036.372-.135.873-.646 1.08a4.585 4.585 0 0 0 1.727 8.831 4.585 4.585 0 0 0 4.248-2.856c.207-.511.708-.682 1.08-.647.195.02.42.096.607.271.201.188.315.45.315.732a8.333 8.333 0 1 1-16.666 0Z" clip-rule="evenodd" fill="#061726"></path></svg>