<svg xmlns:xlink="http://www.w3.org/1999/xlink" xmlns="http://www.w3.org/2000/svg" class="main-menu-icon" width="20" height="20" viewBox="0 0 20 20" fill="currentColor"><path fill-rule="evenodd" d="M10 0c.46 0 .833.373.833.833V2.5a.833.833 0 1 1-1.666 0V.833C9.167.373 9.54 0 10 0Zm0 6.667a3.333 3.333 0 1 0 0 6.666 3.333 3.333 0 0 0 0-6.666ZM5 10a5 5 0 1 1 10 0 5 5 0 0 1-10 0Zm5.833 7.5a.833.833 0 0 0-1.666 0v1.667a.833.833 0 0 0 1.666 0V17.5ZM2.927 2.927a.833.833 0 0 1 1.179 0l1.183 1.184a.833.833 0 0 1-1.178 1.178L2.927 4.106a.833.833 0 0 1 0-1.179ZM15.89 14.711a.834.834 0 0 0-1.178 1.178l1.183 1.184a.833.833 0 0 0 1.179-1.179l-1.184-1.183ZM0 10c0-.46.373-.833.833-.833H2.5a.833.833 0 1 1 0 1.666H.833A.833.833 0 0 1 0 10Zm17.5-.833a.833.833 0 0 0 0 1.666h1.667a.833.833 0 0 0 0-1.666H17.5ZM5.29 14.71a.833.833 0 0 1 0 1.178l-1.184 1.184a.833.833 0 0 1-1.179-1.179l1.184-1.183a.833.833 0 0 1 1.178 0ZM17.072 4.106a.833.833 0 0 0-1.179-1.179l-1.183 1.184a.833.833 0 0 0 1.178 1.178l1.184-1.183Z" clip-rule="evenodd" fill="#061726"></path></svg>