<svg xmlns:xlink="http://www.w3.org/1999/xlink" xmlns="http://www.w3.org/2000/svg" class="main-menu-icon" width="20" height="20" viewBox="0 0 20 20" fill="currentColor"><path fill-rule="evenodd" d="M10 0c.46 0 .833.373.833.833V2.5a.833.833 0 1 1-1.666 0V.833C9.167.373 9.54 0 10 0Zm0 16.667c.46 0 .833.373.833.833v1.667a.833.833 0 0 1-1.666 0V17.5c0-.46.373-.833.833-.833ZM4.106 2.927a.833.833 0 0 0-1.179 1.179l1.184 1.183a.833.833 0 0 0 1.178-1.178L4.106 2.927ZM14.71 14.711a.833.833 0 0 1 1.178 0l1.184 1.183a.833.833 0 0 1-1.179 1.179l-1.183-1.184a.833.833 0 0 1 0-1.178ZM.833 9.167a.833.833 0 1 0 0 1.666H2.5a.833.833 0 1 0 0-1.666H.833ZM16.667 10c0-.46.373-.833.833-.833h1.667a.833.833 0 0 1 0 1.666H17.5a.833.833 0 0 1-.833-.833ZM5.289 15.89a.833.833 0 0 0-1.178-1.18l-1.184 1.184a.833.833 0 0 0 1.179 1.179l1.183-1.184ZM17.073 2.926a.833.833 0 0 1 0 1.179l-1.184 1.183a.833.833 0 0 1-1.178-1.178l1.183-1.184a.833.833 0 0 1 1.179 0ZM10.37 7.162a.833.833 0 0 0-.747-1.325 4.174 4.174 0 1 0 4.54 4.54.833.833 0 0 0-1.325-.747 1.765 1.765 0 0 1-2.468-2.468Zm-2.72 1.98c.144-.402.389-.76.71-1.039a3.433 3.433 0 0 0 3.537 3.538 2.507 2.507 0 0 1-4.248-2.5Z" clip-rule="evenodd" fill="#85C742"></path></svg>